<?xml version="1.0" encoding="UTF-8"?>
<svg xmlns="http://www.w3.org/2000/svg" viewBox="228 745 130 108" fill="none">
  <g fill="#584de4">
    <polygon points="275.37 836.1 286.09 836.1 286.09 831.61 265.08 831.61 265.08 818.97 259.32 818.97 259.32 836.1 269.66 836.1 269.66 843.6 255.1 843.6 255.1 848.22 290.19 848.22 290.19 843.6 275.37 843.6 275.37 836.1"/>
    <polygon points="313.64 836.1 324.37 836.1 324.37 831.61 303.35 831.61 303.35 818.97 297.6 818.97 297.6 836.1 307.93 836.1 307.93 843.6 293.37 843.6 293.37 848.22 328.46 848.22 328.46 843.6 313.64 843.6 313.64 836.1"/>
    <path d="M293.36,788.01h11.25c0,2.57-2.21,9.2-4.65,12.34h5.86c3.13-5.14,4.47-10.03,4.47-13.38v-3.71h-16.94v4.75Z"/>
    <polygon points="312.85 781.68 312.85 801.25 318.19 801.25 318.19 794.06 321.05 794.06 321.05 801.9 326.44 801.9 326.44 781.15 321.05 781.15 321.05 789.44 318.19 789.44 318.19 781.68 312.85 781.68"/>
    <path d="M299.25,809.23c0,4.01,4.65,6.71,13.72,6.71s13.77-2.7,13.77-6.71-4.69-6.71-13.77-6.71-13.72,2.7-13.72,6.71ZM312.98,806.79c5.12,0,7.73,1.13,7.73,2.48,0,1.44-2.61,2.49-7.73,2.49s-7.69-1.05-7.69-2.49c0-1.35,2.48-2.48,7.69-2.48Z"/>
    <path d="M275.5,804.87c6.19-.65,10.03-3.44,10.03-7.32,0-4.36-5.01-7.45-12.86-7.45s-12.95,3.1-12.95,7.45c0,3.84,3.88,6.63,10.07,7.28v3.36h-14.69v4.49h35.09v-4.49h-14.69v-3.31ZM265.78,797.55c0-2.01,3.01-3.01,6.89-3.01s6.84,1,6.84,3.01-2.96,3.09-6.84,3.09-6.89-1.09-6.89-3.09Z"/>
    <polygon points="269.79 780.49 269.79 784.91 257.01 784.91 257.01 789.4 288.27 789.4 288.27 784.91 275.5 784.91 275.5 780.49 269.79 780.49"/>
    <polygon points="351.92 779.27 291.77 748.22 231.77 779.27 231.77 783.21 237.12 783.21 237.12 848.22 242.79 848.22 242.79 780.16 291.77 755.2 340.9 780.17 340.9 848.22 346.57 848.22 346.57 783.21 351.92 783.21 351.92 779.27"/>
  </g>
</svg>
